<svg id="Solid" height="512" viewBox="0 0 512 512" width="512" xmlns="http://www.w3.org/2000/svg"><path d="m272 384a96 96 0 1 0 96-96 96.108 96.108 0 0 0 -96 96zm40-8h48v-48a8 8 0 0 1 16 0v48h48a8 8 0 0 1 0 16h-48v48a8 8 0 0 1 -16 0v-48h-48a8 8 0 0 1 0-16z"/><path d="m272.6 442.613a111.947 111.947 0 0 1 71.217-167.976c-31.117-42.497-77.107-66.637-127.817-66.637-45.522 0-87.578 19.485-118.42 54.865-31.063 35.633-48.567 85.3-49.538 140.291 18.365 9.261 93.77 44.844 167.958 44.844a312.1 312.1 0 0 0 56.6-5.387z"/><circle cx="216" cy="112" r="80"/></svg>