<svg width="16" height="16" viewBox="0 0 16 16" xmlns="http://www.w3.org/2000/svg">
<path d="M7.02643 10.687L5.60643 9.26703L4.89976 9.9737L7.01976 12.0937L11.0198 8.0937L10.3131 7.38703L7.02643 10.687ZM11.5578 2.20703L14.6291 4.77036L13.7758 5.7937L10.7024 3.2317L11.5578 2.20703ZM4.44176 2.20703L5.29643 3.23103L2.22443 5.7937L1.37109 4.7697L4.44176 2.20703ZM7.99976 3.66703C6.40837 3.66712 4.8822 4.29938 3.75698 5.42472C2.63176 6.55007 1.99967 8.07631 1.99976 9.6677C1.99985 11.2591 2.63211 12.7853 3.75745 13.9105C4.8828 15.0357 6.40904 15.6678 8.00043 15.6677C8.7884 15.6677 9.56865 15.5124 10.2966 15.2108C11.0246 14.9092 11.6861 14.4672 12.2432 13.91C12.8004 13.3528 13.2423 12.6913 13.5438 11.9633C13.8453 11.2353 14.0005 10.455 14.0004 9.66703C14.0004 8.87906 13.8451 8.09881 13.5436 7.37083C13.242 6.64285 12.7999 5.9814 12.2427 5.42425C11.6855 4.8671 11.024 4.42516 10.296 4.12365C9.568 3.82215 8.78774 3.66699 7.99976 3.66703ZM7.99976 14.3337C5.42643 14.3337 3.33309 12.2404 3.33309 9.66703C3.33309 7.0937 5.42643 5.00036 7.99976 5.00036C10.5731 5.00036 12.6664 7.0937 12.6664 9.66703C12.6664 12.2404 10.5731 14.3337 7.99976 14.3337Z" />
</svg>
