<svg width="30" height="21" viewBox="0 0 30 21" fill="none" xmlns="http://www.w3.org/2000/svg">
<path d="M24.5455 2.8H13.6364V12.6H2.72727V0H0V21H2.72727V16.8H27.2727V21H30V8.4C30 6.91479 29.4253 5.49041 28.4024 4.4402C27.3795 3.39 25.9921 2.8 24.5455 2.8ZM8.18182 11.2C9.2668 11.2 10.3073 10.7575 11.0745 9.96985C11.8417 9.1822 12.2727 8.11391 12.2727 7C12.2727 5.88609 11.8417 4.8178 11.0745 4.03015C10.3073 3.2425 9.2668 2.8 8.18182 2.8C7.09684 2.8 6.0563 3.2425 5.28911 4.03015C4.52191 4.8178 4.09091 5.88609 4.09091 7C4.09091 8.11391 4.52191 9.1822 5.28911 9.96985C6.0563 10.7575 7.09684 11.2 8.18182 11.2Z" />
</svg>
