<svg width="16" height="16" viewBox="0 0 16 16" fill="none" xmlns="http://www.w3.org/2000/svg">
<path d="M12.6667 3.00033H12V1.66699H10.6667V3.00033H5.33333V1.66699H4V3.00033H3.33333C2.6 3.00033 2 3.60033 2 4.33366V13.667C2 14.4003 2.6 15.0003 3.33333 15.0003H12.6667C13.4 15.0003 14 14.4003 14 13.667V4.33366C14 3.60033 13.4 3.00033 12.6667 3.00033ZM12.6667 13.667H3.33333V7.00033H12.6667V13.667ZM3.33333 5.66699V4.33366H12.6667V5.66699H3.33333ZM7.04 12.6403L10.9933 8.68699L10.2867 7.98033L7.04 11.227L5.63333 9.82033L4.92667 10.527L7.04 12.6403Z" />
</svg>
