<svg id="Capa_1" enable-background="new 0 0 512 512" height="512" viewBox="0 0 512 512" width="512" xmlns="http://www.w3.org/2000/svg" xmlns:xlink="http://www.w3.org/1999/xlink"><linearGradient id="lg1"><stop offset="0" stop-color="#8b451c"/><stop offset="1" stop-color="#bf942a"/></linearGradient><linearGradient id="SVGID_1_" gradientUnits="userSpaceOnUse" x1="267.686" x2="294.279" xlink:href="#lg1" y1="445.101" y2="445.101"/><linearGradient id="SVGID_2_" gradientUnits="userSpaceOnUse" x1="461.169" x2="487.761" xlink:href="#lg1" y1="333.544" y2="333.544"/><linearGradient id="SVGID_3_" gradientUnits="userSpaceOnUse" x1="71.785" x2="87.474" y1="169.048" y2="141.873"><stop offset="0" stop-color="#252336"/><stop offset="1" stop-color="#594a8e"/></linearGradient><linearGradient id="SVGID_4_" gradientUnits="userSpaceOnUse" x1="140.218" x2="140.218" y1="269.304" y2="109.654"><stop offset="0" stop-color="#594a8e"/><stop offset="1" stop-color="#7662bd"/></linearGradient><linearGradient id="SVGID_5_" gradientUnits="userSpaceOnUse" x1="267.9" x2="294.871" xlink:href="#lg1" y1="331.375" y2="331.375"/><linearGradient id="lg2"><stop offset="0" stop-color="#c5baeb"/><stop offset="1" stop-color="#e9e5f6"/></linearGradient><linearGradient id="SVGID_6_" gradientUnits="userSpaceOnUse" x1="267.9" x2="294.871" xlink:href="#lg2" y1="275.249" y2="275.249"/><linearGradient id="SVGID_7_" gradientUnits="userSpaceOnUse" x1="91.148" x2="107.777" xlink:href="#lg2" y1="257.707" y2="228.905"/><linearGradient id="SVGID_8_" gradientUnits="userSpaceOnUse" x1="100.293" x2="186.355" xlink:href="#lg2" y1="224.078" y2="224.078"/><linearGradient id="SVGID_9_" gradientUnits="userSpaceOnUse" x1="192.188" x2="208.817" xlink:href="#lg2" y1="199.456" y2="170.654"/><linearGradient id="SVGID_10_" gradientUnits="userSpaceOnUse" x1="201.333" x2="287.395" xlink:href="#lg2" y1="165.827" y2="165.827"/><linearGradient id="lg3"><stop offset="0" stop-color="#d7d1eb"/><stop offset="1" stop-color="#e7e3f3"/></linearGradient><linearGradient id="SVGID_11_" gradientUnits="userSpaceOnUse" x1="128.117" x2="272.333" xlink:href="#lg3" y1="330.593" y2="413.857"/><linearGradient id="SVGID_12_" gradientUnits="userSpaceOnUse" x1="296.816" x2="493.489" xlink:href="#lg3" y1="409.093" y2="295.544"/><g><path d="m294.279 378.203-26.593 1.837v125.587l.007-.001c.079 1.688 1.145 3.291 3.239 4.5 4.807 2.776 13.204 2.428 18.755-.777 2.855-1.648 4.39-3.73 4.565-5.743l.027-.002z" fill="url(#SVGID_1_)"/><path d="m487.761 266.645-26.593 1.837v125.587l.007-.001c.079 1.688 1.145 3.291 3.239 4.5 4.807 2.776 13.204 2.427 18.755-.777 2.855-1.648 4.39-3.73 4.565-5.742l.027-.002z" fill="url(#SVGID_2_)"/><g><path d="m238.92 16.164-24.823-14.344-.012.017c-3.219-2.14-7.541-2.592-11.366-.384l-180.089 103.975c-8.044 4.644-12.999 13.227-12.999 22.515v225.266c0 4.208 2.313 7.61 5.526 9.408l-.003.004 25.725 14.864c.068.04.135.079.203.117l.15.087.006-.009 197.67-361.501z" fill="url(#SVGID_3_)"/><path d="m35.584 368.209v-225.266c0-9.288 4.955-17.871 12.999-22.515l180.089-103.975c7.191-4.152 16.181 1.038 16.181 9.342v225.266c0 9.288-4.955 17.871-12.999 22.515l-180.09 103.975c-7.191 4.152-16.18-1.038-16.18-9.342z" fill="url(#SVGID_4_)"/></g><g><path d="m485.309 310.362-235.621-136.036c-4.693-2.71-10.475-2.71-15.168 0l-196.484 113.441c-1.635.944-2.452 2.595-2.452 4.247v56.126c0 1.652.817 3.303 2.452 4.247l235.621 136.036c4.693 2.709 10.475 2.709 15.168 0l196.485-113.44c1.659-.958 2.472-2.644 2.448-4.32h.005v-55.99h-.004c.02-1.673-.794-3.355-2.45-4.311z" fill="url(#SVGID_5_)"/><path d="m273.657 432.297-235.621-136.036c-3.27-1.888-3.27-6.607 0-8.494l196.485-113.441c4.693-2.709 10.475-2.709 15.168 0l235.621 136.036c3.27 1.888 3.27 6.607 0 8.494l-196.485 113.44c-4.693 2.711-10.475 2.711-15.168.001z" fill="#d7d1eb"/></g><g><path d="m485.309 254.236-235.621-136.036c-4.693-2.71-10.475-2.71-15.168 0l-196.484 113.44c-1.635.944-2.452 2.596-2.452 4.247v56.127c0 1.652.817 3.303 2.452 4.247l235.621 136.036c4.693 2.709 10.475 2.709 15.168 0l196.485-113.44c1.659-.957 2.472-2.644 2.448-4.32h.005v-55.99h-.004c.02-1.673-.794-3.355-2.45-4.311z" fill="url(#SVGID_6_)"/><path d="m273.657 376.171-235.621-136.036c-3.27-1.888-3.27-6.607 0-8.494l196.485-113.441c4.693-2.709 10.475-2.709 15.168 0l235.621 136.036c3.27 1.888 3.27 6.607 0 8.494l-196.485 113.44c-4.693 2.71-10.475 2.71-15.168.001z" fill="#d7d1eb"/></g><g><path d="m183.842 193.979c-.715-.62-1.542-1.097-2.437-1.407l-46.635-26.925c-2.223-1.97-5.588-2.577-8.52-.885l-64.546 37.266c-6.524 3.767-10.544 10.728-10.544 18.262 0 2.938 1.665 5.289 3.944 6.477l48.376 27.93c2.19 1.495 5.16 1.826 7.784.311l64.546-37.266c6.524-3.767 10.544-10.729 10.544-18.262.001-2.275-1.004-4.195-2.512-5.501z" fill="url(#SVGID_7_)"/><path d="m110.837 230.412 64.546-37.266c4.876-2.815 10.972.704 10.972 6.335 0 7.534-4.019 14.495-10.544 18.262l-64.547 37.266c-4.876 2.815-10.972-.704-10.972-6.335.001-7.533 4.02-14.495 10.545-18.262z" fill="url(#SVGID_8_)"/></g><g><path d="m284.882 135.727c-.715-.62-1.542-1.097-2.436-1.407l-46.635-26.924c-2.223-1.97-5.588-2.577-8.52-.885l-64.546 37.266c-6.524 3.767-10.544 10.728-10.544 18.262 0 2.938 1.665 5.289 3.944 6.477l48.376 27.93c2.19 1.495 5.16 1.826 7.784.311l64.546-37.266c6.525-3.767 10.544-10.729 10.544-18.262 0-2.275-1.005-4.194-2.513-5.502z" fill="url(#SVGID_9_)"/><path d="m211.877 172.161 64.546-37.266c4.876-2.815 10.972.704 10.972 6.335 0 7.534-4.019 14.495-10.544 18.262l-64.546 37.266c-4.876 2.815-10.972-.704-10.972-6.335 0-7.533 4.019-14.495 10.544-18.262z" fill="url(#SVGID_10_)"/></g><path d="m279.603 469.825 222.766-175.589v-4.305c0-26.451-14.112-50.893-37.019-64.118l-133.826-77.264c-13.339-7.701-29.772-7.701-43.111 0l-155.943 90.033c-21.864 12.623-35.705 35.465-36.921 60.518z" fill="#e9e5f6"/><path d="m234.94 340.489-113.213-65.363c-8.018-4.629-17.412-2.107-22.513 4.294l33.633 105.667c-.001.004-.003.009-.004.013l146.761 84.732v-51.984c-.001-31.913-17.026-61.402-44.664-77.359z" fill="url(#SVGID_11_)"/><path d="m326.578 341.163 134.298-71.795c18.784-10.042 41.493 3.568 41.493 24.868v46.983l-222.766 128.614v-50.291c0-32.792 18.057-62.919 46.975-78.379z" fill="url(#SVGID_12_)"/><path d="m331.525 148.548c-13.339-7.701-29.772-7.701-43.111 0l-155.944 90.034c-15.951 9.209-27.63 23.86-33.256 40.837l43.545 7.849c6.392-11.075 15.649-20.497 27.106-27.112l155.944-90.034c13.218-7.631 29.47-7.689 42.743-.196z" fill="#f2edff"/><path d="m132.847 385.087v-60.811c0-13.221 3.526-25.94 9.912-37.007l-21.033-12.143c-8.018-4.629-17.412-2.106-22.513 4.294-.295.889-3.763 9.997-3.763 23.282v60.811z" fill="#e9e5f6"/></g></svg>