<svg width="16" height="16" viewBox="0 0 16 16" fill="none" xmlns="http://www.w3.org/2000/svg">
<path d="M3.19985 1.73059L7.99985 6.53059L12.7999 1.74513C12.8944 1.64897 13.0078 1.57347 13.133 1.52339C13.2582 1.47332 13.3924 1.44977 13.5271 1.45422C13.7915 1.47133 14.0407 1.5841 14.2281 1.77147C14.4154 1.95883 14.5282 2.20798 14.5453 2.4724C14.5466 2.60241 14.5215 2.73134 14.4715 2.85135C14.4215 2.97137 14.3476 3.07998 14.2544 3.17059L9.43985 7.99968L14.2544 12.8288C14.4435 13.012 14.5482 13.2651 14.5453 13.5269C14.5282 13.7914 14.4154 14.0405 14.2281 14.2279C14.0407 14.4153 13.7915 14.528 13.5271 14.5451C13.3924 14.5496 13.2582 14.526 13.133 14.476C13.0078 14.4259 12.8944 14.3504 12.7999 14.2542L7.99985 9.46877L3.2144 14.2542C3.11989 14.3504 3.00646 14.4259 2.88128 14.476C2.75609 14.526 2.62188 14.5496 2.48713 14.5451C2.21777 14.5311 1.96316 14.4178 1.77244 14.2271C1.58173 14.0364 1.46842 13.7818 1.4544 13.5124C1.45308 13.3824 1.47819 13.2535 1.5282 13.1335C1.5782 13.0134 1.65207 12.9048 1.74531 12.8142L6.55985 7.99968L1.73076 3.17059C1.64015 3.07875 1.56897 2.9696 1.52149 2.84964C1.474 2.72968 1.45119 2.60138 1.4544 2.4724C1.47151 2.20798 1.58428 1.95883 1.77164 1.77147C1.95901 1.5841 2.20816 1.47133 2.47258 1.45422C2.60629 1.44787 2.73987 1.46913 2.86499 1.51668C2.99012 1.56423 3.10411 1.63704 3.19985 1.73059Z" />
</svg>
