<svg width="12" height="14" viewBox="0 0 12 14" fill="none" xmlns="http://www.w3.org/2000/svg">
<path d="M10.6667 2.00033H10V0.666992H8.66667V2.00033H3.33333V0.666992H2V2.00033H1.33333C0.6 2.00033 0 2.60033 0 3.33366V12.667C0 13.4003 0.6 14.0003 1.33333 14.0003H10.6667C11.4 14.0003 12 13.4003 12 12.667V3.33366C12 2.60033 11.4 2.00033 10.6667 2.00033ZM10.6667 12.667H1.33333V6.00033H10.6667V12.667ZM1.33333 4.66699V3.33366H10.6667V4.66699H1.33333ZM5.04 11.6403L8.99333 7.68699L8.28667 6.98033L5.04 10.227L3.63333 8.82033L2.92667 9.52699L5.04 11.6403Z" fill="black"/>
</svg>
