<svg width="24" height="24" viewBox="0 0 24 24" xmlns="http://www.w3.org/2000/svg">
<path d="M12 1.5C9.9233 1.5 7.89323 2.11581 6.16651 3.26957C4.4398 4.42332 3.09398 6.0632 2.29926 7.98182C1.50454 9.90045 1.29661 12.0116 1.70175 14.0484C2.1069 16.0852 3.10693 17.9562 4.57538 19.4246C6.04383 20.8931 7.91475 21.8931 9.95155 22.2982C11.9884 22.7034 14.0996 22.4955 16.0182 21.7007C17.9368 20.906 19.5767 19.5602 20.7304 17.8335C21.8842 16.1068 22.5 14.0767 22.5 12C22.4968 9.2162 21.3896 6.54733 19.4211 4.57889C17.4527 2.61044 14.7838 1.50318 12 1.5ZM3.015 12.2955L4.0185 12.63L5.25 14.4772V15.4395C5.25004 15.6384 5.32909 15.8291 5.46975 15.9697L7.5 18V19.7828C6.17842 19.018 5.07327 17.9294 4.28863 16.6195C3.50398 15.3096 3.06568 13.8216 3.015 12.2955ZM12 21C11.3512 20.9987 10.7044 20.927 10.071 20.7863L10.5 19.5L11.8538 16.116C11.8989 16.003 11.9158 15.8808 11.9031 15.7598C11.8905 15.6388 11.8485 15.5227 11.781 15.4215L10.7228 13.8337C10.6542 13.7311 10.5614 13.6469 10.4526 13.5887C10.3437 13.5304 10.2222 13.5 10.0988 13.5H6.40125L5.46525 12.0953L7.0605 10.5H8.25V12H9.75V9.9495L12.651 4.872L11.349 4.128L10.7078 5.25H8.65125L7.8375 4.02825C8.93087 3.45128 10.1325 3.10853 11.3657 3.02188C12.5989 2.93523 13.8367 3.10658 15 3.525V6C15 6.19891 15.079 6.38968 15.2197 6.53033C15.3603 6.67098 15.5511 6.75 15.75 6.75H16.8488C16.9722 6.75002 17.0937 6.71957 17.2026 6.66135C17.3114 6.60313 17.4042 6.51894 17.4728 6.41625L18.1305 5.42925C18.9871 6.2282 19.68 7.18627 20.1705 8.25H17.115C16.9417 8.2501 16.7737 8.31023 16.6398 8.42017C16.5058 8.5301 16.414 8.68304 16.38 8.853L15.8378 12.2055C15.8121 12.3633 15.8375 12.5252 15.9104 12.6676C15.9833 12.8099 16.0997 12.9253 16.2427 12.9967L18.75 14.25L19.2637 17.292C18.4313 18.4392 17.3392 19.3732 16.0768 20.0176C14.8144 20.662 13.4174 20.9987 12 21Z" />
</svg>
