<svg width="21" height="22" viewBox="0 0 21 22" fill="none" xmlns="http://www.w3.org/2000/svg">
<path d="M19.8994 0.524121L20.4754 1.10007C21.269 1.89468 21.149 3.30331 20.205 4.2463L8.3278 16.1235L4.47969 17.5311C3.99648 17.7088 3.52596 17.4784 3.4303 17.0186C3.39797 16.8519 3.41319 16.6793 3.47423 16.5208L4.90921 12.6395L16.7532 0.794523C17.6972 -0.148467 19.1058 -0.269514 19.8994 0.525097V0.524121ZM7.80945 1.7053C7.93764 1.7053 8.06458 1.73055 8.18301 1.77961C8.30145 1.82866 8.40906 1.90057 8.49971 1.99122C8.59036 2.08186 8.66226 2.18948 8.71132 2.30791C8.76038 2.42635 8.78563 2.55329 8.78563 2.68148C8.78563 2.80967 8.76038 2.93661 8.71132 3.05505C8.66226 3.17348 8.59036 3.2811 8.49971 3.37174C8.40906 3.46239 8.30145 3.5343 8.18301 3.58335C8.06458 3.63241 7.93764 3.65766 7.80945 3.65766H3.90472C3.38692 3.65766 2.89033 3.86336 2.52419 4.22949C2.15806 4.59563 1.95236 5.09222 1.95236 5.61002V17.3242C1.95236 17.842 2.15806 18.3386 2.52419 18.7047C2.89033 19.0709 3.38692 19.2766 3.90472 19.2766H15.6189C16.1367 19.2766 16.6333 19.0709 16.9994 18.7047C17.3656 18.3386 17.5713 17.842 17.5713 17.3242V13.4195C17.5713 13.1606 17.6741 12.9123 17.8572 12.7292C18.0402 12.5461 18.2885 12.4433 18.5474 12.4433C18.8063 12.4433 19.0546 12.5461 19.2377 12.7292C19.4208 12.9123 19.5236 13.1606 19.5236 13.4195V17.3242C19.5236 18.3598 19.1122 19.353 18.3799 20.0852C17.6477 20.8175 16.6545 21.2289 15.6189 21.2289H3.90472C2.86913 21.2289 1.87594 20.8175 1.14367 20.0852C0.411389 19.353 0 18.3598 0 17.3242V5.61002C0 4.57443 0.411389 3.58124 1.14367 2.84897C1.87594 2.11669 2.86913 1.7053 3.90472 1.7053H7.80945Z" fill="white"/>
</svg>
