<svg height="512pt" viewBox="0 0 512 512" width="512pt" xmlns="http://www.w3.org/2000/svg"><path d="m305.921875 156.71875c-2.832031-3.011719-6.785156-4.71875-10.921875-4.71875h-260c-4.136719 0-8.089844 1.707031-10.921875 4.71875-2.835937 3.011719-4.300781 7.058594-4.050781 11.1875l20 330c.480468 7.917969 7.039062 14.09375 14.972656 14.09375h220c7.933594 0 14.492188-6.175781 14.972656-14.09375l20-330c.25-4.128906-1.214844-8.175781-4.050781-11.1875zm0 0" fill="#e8edf5"/><path d="m289.972656 497.90625 20-330c.25-4.128906-1.214844-8.175781-4.050781-11.1875-2.832031-3.011719-6.785156-4.71875-10.921875-4.71875h-129.960938v360h109.960938c7.933594 0 14.492188-6.175781 14.972656-14.09375zm0 0" fill="#ccd3e2"/><path d="m164.984375 122.003906c-2.808594 0-5.648437-.789062-8.179687-2.441406-6.9375-4.523438-8.894532-13.816406-4.371094-20.757812l60-92c2.769531-4.246094 7.496094-6.804688 12.566406-6.804688h60c8.285156 0 15 6.714844 15 15s-6.714844 15-15 15h-51.875l-55.5625 85.195312c-2.875 4.410157-7.675781 6.808594-12.578125 6.808594zm0 0" fill="#525c5c"/><path d="m315 182h-300c-8.285156 0-15-6.714844-15-15v-60c0-8.285156 6.714844-15 15-15h300c8.285156 0 15 6.714844 15 15v60c0 8.285156-6.714844 15-15 15zm0 0" fill="#ff455a"/><path d="m315 92h-149.960938v90h149.960938c8.285156 0 15-6.714844 15-15v-60c0-8.285156-6.714844-15-15-15zm0 0" fill="#bf0032"/><path d="m447 392h-223.957031c-12.042969 0-27.234375-8.285156-33.394531-18.636719-20.871094-35.074219 4.082031-71.363281 37.351562-71.363281h223.957031c12.042969 0 27.234375 8.285156 33.394531 18.636719 20.871094 35.074219-4.082031 71.363281-37.351562 71.363281zm0 0" fill="#ffe54e"/><path d="m492 347c0-24.8125-20.1875-45-45-45h-110v90h110c24.8125 0 45-20.1875 45-45zm0 0" fill="#ffbd1c"/><path d="m497 332h-320c-8.285156 0-15-6.714844-15-15 0-52.382812 42.617188-95 95-95h160c52.382812 0 95 42.617188 95 95 0 8.285156-6.714844 15-15 15zm0 0" fill="#cf957a"/><path d="m417 222h-80v110h160c8.285156 0 15-6.714844 15-15 0-52.382812-42.617188-95-95-95zm0 0" fill="#b27861"/><path d="m447 452h-220c-24.8125 0-45-20.1875-45-45s20.1875-45 45-45h220c24.8125 0 45 20.1875 45 45s-20.1875 45-45 45zm0 0" fill="#ff455a"/><path d="m447 452c24.8125 0 45-20.1875 45-45s-20.1875-45-45-45h-110v90zm0 0" fill="#bf0032"/><path d="m437 512h-200c-41.355469 0-75-33.644531-75-75 0-8.285156 6.714844-15 15-15h320c8.285156 0 15 6.714844 15 15 0 41.355469-33.644531 75-75 75zm0 0" fill="#cf957a"/><path d="m497 422h-160v90h100c41.355469 0 75-33.644531 75-75 0-8.285156-6.714844-15-15-15zm0 0" fill="#b27861"/><path d="m60 245c-12.558594 0-24.382812 3.101562-34.78125 8.554688l8.277344 136.613281c8.242187 3.113281 17.171875 4.832031 26.503906 4.832031 41.421875 0 75-33.578125 75-75s-33.578125-75-75-75zm0 0" fill="#ff455a"/></svg>