<svg width="22" height="22" viewBox="0 0 22 22" fill="none" xmlns="http://www.w3.org/2000/svg">
<path d="M6.18332 3.4375C5.7711 3.4375 5.49628 3.85 5.49628 4.125V7.5625H4.12221V4.125C4.12221 3.7125 3.8474 3.4375 3.43518 3.4375C3.02295 3.4375 2.74814 3.85 2.74814 4.125V7.5625H1.37407V4.125C1.37407 3.7125 1.09926 3.4375 0.687035 3.4375C0.274814 3.4375 0 3.85 0 4.125V8.6625C0 9.9 0.961849 10.8625 2.06111 11V20.625C2.06111 21.45 2.61073 22 3.43518 22C4.25962 22 4.80925 21.45 4.80925 20.625V11C5.9085 10.8625 6.87035 9.9 6.87035 8.6625V4.125C6.87035 3.85 6.59554 3.4375 6.18332 3.4375ZM8.93146 4.125V12.375H10.3055V20.625C10.3055 21.45 10.8552 22 11.6796 22C12.504 22 13.0537 21.45 13.0537 20.625V0C10.7177 0 8.93146 1.7875 8.93146 4.125ZM18.5499 2.75C16.6263 2.75 15.1148 4.8125 15.1148 7.2875C14.9774 8.9375 15.8018 10.45 17.1759 11.4125V20.625C17.1759 21.45 17.7255 22 18.5499 22C19.3744 22 19.924 21.45 19.924 20.625V11.4125C21.2981 10.45 22.1225 8.9375 21.9851 7.2875C21.9851 4.8125 20.4736 2.75 18.5499 2.75Z" />
</svg>
