<svg width="31" height="34" viewBox="0 0 31 34" fill="none" xmlns="http://www.w3.org/2000/svg">
<path fill-rule="evenodd" clip-rule="evenodd" d="M5.15152 0H25.7576C27.1238 0 28.4341 0.511733 29.4002 1.42262C30.3663 2.33352 30.9091 3.56895 30.9091 4.85714V29.1429C30.9091 30.4311 30.3663 31.6665 29.4002 32.5774C28.4341 33.4883 27.1238 34 25.7576 34H5.15152C3.78525 34 2.47494 33.4883 1.50884 32.5774C0.542747 31.6665 0 30.4311 0 29.1429V4.85714C0 3.56895 0.542747 2.33352 1.50884 1.42262C2.47494 0.511733 3.78525 0 5.15152 0ZM5.15152 2.42857C4.46838 2.42857 3.81323 2.68444 3.33018 3.13988C2.84713 3.59533 2.57576 4.21305 2.57576 4.85714V29.1429C2.57576 29.787 2.84713 30.4047 3.33018 30.8601C3.81323 31.3156 4.46838 31.5714 5.15152 31.5714H25.7576C26.4407 31.5714 27.0959 31.3156 27.5789 30.8601C28.062 30.4047 28.3333 29.787 28.3333 29.1429V4.85714C28.3333 4.21305 28.062 3.59533 27.5789 3.13988C27.0959 2.68444 26.4407 2.42857 25.7576 2.42857H5.15152Z" />
<path d="M30.353 31.5709C29.0729 28.4866 25.2324 24.2852 15.4548 24.2852C5.67725 24.2852 1.83679 28.4866 0.556641 31.5709H30.353Z" />
<path fill-rule="evenodd" clip-rule="evenodd" d="M15.4548 21.8566C16.4696 21.8566 17.4744 21.6681 18.4119 21.302C19.3494 20.9359 20.2013 20.3992 20.9188 19.7226C21.6364 19.0461 22.2055 18.2429 22.5939 17.359C22.9822 16.475 23.1821 15.5276 23.1821 14.5709C23.1821 13.6141 22.9822 12.6667 22.5939 11.7827C22.2055 10.8988 21.6364 10.0956 20.9188 9.41909C20.2013 8.74255 19.3494 8.20589 18.4119 7.83975C17.4744 7.47361 16.4696 7.28516 15.4548 7.28516C13.4054 7.28516 11.4399 8.05276 9.9908 9.41909C8.54166 10.7854 7.72754 12.6386 7.72754 14.5709C7.72754 16.5032 8.54166 18.3563 9.9908 19.7226C11.4399 21.089 13.4054 21.8566 15.4548 21.8566Z"/>
</svg>
