<svg id="Layer_1" enable-background="new 0 0 512 512" height="512" viewBox="0 0 512 512" width="512" xmlns="http://www.w3.org/2000/svg"><g><g><g><path d="m411.28 248.678h-124.147c-19.107 0-34.596-15.489-34.596-34.596v-109.912c0-53.389 43.281-96.67 96.67-96.67 53.389 0 96.67 43.281 96.67 96.67v109.912c-.001 19.107-15.49 34.596-34.597 34.596z" fill="#355f7f"/><path d="m349.207 7.5c-5.102 0-10.111.398-15 1.16 46.266 7.208 81.67 47.223 81.67 95.51v109.912c0 19.107-15.489 34.596-34.596 34.596h30c19.107 0 34.596-15.489 34.596-34.596v-109.912c-.001-53.389-43.281-96.67-96.67-96.67z" fill="#305972"/><g><g><path d="m489.5 397.63v-99.116c0-22.206-15.45-41.421-37.139-46.188l-58.066-12.762c-7.229-1.589-12.38-7.994-12.38-15.396v-48.014h-65.418v48.014c0 7.402-5.15 13.807-12.38 15.396l-58.066 12.762c-21.688 4.767-37.139 23.982-37.139 46.188v99.116z" fill="#aca6d6"/><g><path d="m452.361 252.326-58.066-12.762c-7.229-1.589-12.38-7.994-12.38-15.396v-48.014l-30 15v48.014c0 7.402 5.15 13.807 12.38 15.396l58.066 12.762c21.688 4.767 37.139 23.982 37.139 46.188v84.116h30v-99.116c0-22.206-15.45-41.421-37.139-46.188z" fill="#978ecb"/></g><path d="m430.388 362.489h59.112v39.714h-59.112z" fill="#ffcebf"/><path d="m459.5 362.489h30v35.141h-30z" fill="#ffb09e"/><path d="m208.913 362.489h59.112v39.714h-59.112z" fill="#ffcebf"/><path d="m349.207 271.523c23.972 0 45.295-11.328 58.919-28.919l-13.83-3.04c-7.229-1.589-12.38-7.994-12.38-15.396v-48.014h-65.418v48.014c0 7.402-5.15 13.807-12.38 15.396l-13.83 3.04c13.623 17.591 34.947 28.919 58.919 28.919z" fill="#ffcebf"/><path d="m381.915 224.169v-48.014l-30 15v48.014c0 7.402 5.15 13.807 12.38 15.396l24.713 5.432c7.339-4.651 13.814-10.544 19.117-17.392l-13.83-3.04c-2.711-.598-5.095-1.837-7.094-3.618-3.274-2.915-5.286-7.152-5.286-11.778z" fill="#ffb09e"/><g><path d="m430.388 405.129c-4.143 0-7.5-3.358-7.5-7.5v-49.828c0-4.142 3.357-7.5 7.5-7.5s7.5 3.358 7.5 7.5v49.828c0 4.142-3.358 7.5-7.5 7.5z" fill="#978ecb"/></g><g><path d="m268.025 405.129c-4.143 0-7.5-3.358-7.5-7.5v-49.828c0-4.142 3.357-7.5 7.5-7.5s7.5 3.358 7.5 7.5v49.828c0 4.142-3.357 7.5-7.5 7.5z" fill="#978ecb"/></g></g><path d="m415.876 108.356c0-2.705-2.26-4.863-4.961-4.721-6.023.315-15.612-.3-25.501-5.719-7.618-4.175-12.62-9.669-15.676-13.91-1.63-2.263-4.858-2.588-6.952-.746-6.041 5.313-14.834 11.633-26.561 16.206-19.734 7.695-37.698 6.512-48.196 4.744-2.877-.484-5.492 1.749-5.492 4.666v46.258c0 36.821 29.849 66.67 66.67 66.67 36.821 0 66.67-29.849 66.67-66.67v-46.778z" fill="#ffcebf"/><g><path d="m385.876 155.133c.217 4.078.917 24.978-14.737 41.797-21.351 22.939-52.995 16.662-54.641 16.306 6.079 3.343 14.573 6.902 25.083 8.125 2.686.313 5.237.441 7.626.441 36.821 0 66.67-29.849 66.67-66.67v-46.777c0-2.705-2.259-4.862-4.961-4.721-5.94.311-15.347-.283-25.09-5.496z" fill="#ffb09e"/></g></g></g><path d="m37.5 502v-57.5h437v57.5c0 5.523-4.477 10-10 10h-417c-5.523 0-10-4.477-10-10z" fill="#eaf6ff"/><path d="m444.5 444.5v57.5c0 5.523-4.477 10-10 10h30c5.523 0 10-4.477 10-10v-57.5z" fill="#d8ecfe"/><g><path d="m169.759 388.984h-109.482v-23.158c0-9.29 7.531-16.822 16.822-16.822h75.839c9.29 0 16.822 7.531 16.822 16.822v23.158z" fill="#355f7f"/><path d="m152.938 349.004h-30c9.29 0 16.822 7.531 16.822 16.822v23.158h30v-23.158c-.001-9.29-7.532-16.822-16.822-16.822z" fill="#305972"/><path d="m211.322 308.036h-192.608c-6.194 0-11.214-5.021-11.214-11.214v-124.064c0-6.194 5.021-11.214 11.214-11.214h192.608c6.194 0 11.214 5.021 11.214 11.214v124.064c.001 6.193-5.02 11.214-11.214 11.214z" fill="#355f7f"/><path d="m211.322 161.543h-30c6.193 0 11.214 5.021 11.214 11.214v124.064c0 6.193-5.021 11.214-11.214 11.214h30c6.193 0 11.214-5.021 11.214-11.214v-124.063c.001-6.194-5.02-11.215-11.214-11.215z" fill="#305972"/><path d="m135.16 349.004h-40.283v-100.076c0-5.523 4.477-10 10-10h20.284c5.523 0 10 4.477 10 10v100.076z" fill="#eaf6ff"/></g><path d="m494.5 444.5h-477c-5.523 0-10-4.477-10-10v-35.516c0-5.523 4.477-10 10-10h477c5.523 0 10 4.477 10 10v35.516c0 5.523-4.477 10-10 10z" fill="#c59191"/><path d="m494.5 388.984h-30c5.523 0 10 4.477 10 10v35.516c0 5.523-4.477 10-10 10h30c5.523 0 10-4.477 10-10v-35.516c0-5.523-4.477-10-10-10z" fill="#b98080"/></g><path d="m381.373 152.372c4.143 0 7.5-3.358 7.5-7.5v-12.867c0-4.142-3.357-7.5-7.5-7.5s-7.5 3.358-7.5 7.5v12.867c0 4.142 3.357 7.5 7.5 7.5zm-64.333-27.867c-4.143 0-7.5 3.358-7.5 7.5v12.867c0 4.142 3.357 7.5 7.5 7.5s7.5-3.358 7.5-7.5v-12.867c0-4.142-3.357-7.5-7.5-7.5zm179.96 257.179v-83.174c0-25.531-18.098-48.034-43.029-53.505l-11.548-2.54c6.924-7.582 10.957-17.607 10.957-28.385v-109.91c0-27.818-10.833-53.978-30.508-73.665-19.683-19.672-45.843-30.505-73.662-30.505-57.439 0-104.17 46.73-104.17 104.17v109.91c0 10.777 4.032 20.802 10.955 28.384l-11.556 2.541c-5.07 1.115-9.908 2.928-14.399 5.365v-77.61c0-10.322-8.397-18.72-18.72-18.72h-192.61c-10.316 0-18.71 8.398-18.71 18.72v59.992c0 4.142 3.357 7.5 7.5 7.5s7.5-3.358 7.5-7.5v-59.992c0-2.051 1.664-3.72 3.71-3.72h192.61c2.051 0 3.72 1.668 3.72 3.72v124.06c0 2.051-1.669 3.72-3.72 3.72h-68.66v-51.612c0-9.649-7.851-17.5-17.5-17.5h-20.283c-9.649 0-17.5 7.851-17.5 17.5v51.612h-68.667c-2.046 0-3.71-1.669-3.71-3.72v-29.068c0-4.142-3.357-7.5-7.5-7.5s-7.5 3.358-7.5 7.5v29.068c0 10.322 8.394 18.72 18.71 18.72h68.667v25.964h-10.278c-13.411 0-24.321 10.911-24.321 24.322v15.658h-35.278c-9.649 0-17.5 7.851-17.5 17.5v35.516c0 9.649 7.851 17.5 17.5 17.5h12.5v52.5c0 4.142 3.357 7.5 7.5 7.5s7.5-3.358 7.5-7.5v-52.5h340.759c4.143 0 7.5-3.358 7.5-7.5s-3.357-7.5-7.5-7.5h-368.259c-1.379 0-2.5-1.122-2.5-2.5v-35.516c0-1.378 1.121-2.5 2.5-2.5h477c1.379 0 2.5 1.122 2.5 2.5v35.516c0 1.378-1.121 2.5-2.5 2.5h-73.741c-4.143 0-7.5 3.358-7.5 7.5s3.357 7.5 7.5 7.5h46.241v52.5c0 4.142 3.357 7.5 7.5 7.5s7.5-3.358 7.5-7.5v-52.5h12.5c9.649 0 17.5-7.851 17.5-17.5v-35.516c0-8.798-6.534-16.081-15-17.3zm-394.623-73.586c0-.02.003-.039.003-.058s-.003-.039-.003-.058v-59.054c0-1.378 1.121-2.5 2.5-2.5h20.283c1.379 0 2.5 1.122 2.5 2.5v92.577h-25.283zm59.883 73.386h-94.483v-15.658c0-5.14 4.182-9.322 9.321-9.322h75.839c5.141 0 9.322 4.182 9.322 9.322v15.658zm39.15 0h-24.15v-15.658c0-13.411-10.911-24.322-24.322-24.322h-10.278v-25.964h58.75zm58.63-277.314c0-49.168 40.002-89.17 89.17-89.17 23.814 0 46.209 9.274 63.056 26.112 16.84 16.851 26.114 39.245 26.114 63.058v109.91c0 10.363-5.792 19.643-14.924 24.214l-27.562-6.061c-3.751-.821-6.474-4.212-6.474-8.063v-6.764c20.412-13.228 33.956-36.191 33.956-62.273v-46.777c0-3.342-1.39-6.577-3.812-8.875-2.417-2.294-5.709-3.509-9.041-3.336-5.302.277-13.338-.331-21.505-4.807-5.211-2.855-9.65-6.798-13.196-11.718-2.002-2.778-5.104-4.591-8.509-4.976-3.431-.389-6.885.7-9.48 2.983-7.269 6.392-15.455 11.388-24.333 14.85-17.442 6.802-33.676 6.113-44.227 4.336-3.543-.595-7.153.394-9.902 2.717-2.755 2.33-4.335 5.736-4.335 9.345v46.258c0 26.085 13.547 49.051 33.964 62.277v6.759c0 3.851-2.726 7.242-6.49 8.065l-27.549 6.058c-9.13-4.572-14.921-13.851-14.921-24.213zm63.929 120.706c7.882 2.861 16.38 4.427 25.238 4.427 8.86 0 17.36-1.567 25.244-4.429.31 10.867 8.444 20.38 19.244 22.234-12.157 10.854-27.82 16.915-44.489 16.915-16.668 0-32.331-6.061-44.489-16.915 10.674-2.075 18.954-11.183 19.252-22.232zm-33.933-69.743v-43.035c12.369 1.669 30.008 1.727 48.913-5.646 9.608-3.747 18.525-9.003 26.545-15.646 4.532 5.634 10.009 10.229 16.315 13.686 9.818 5.38 19.44 6.708 26.547 6.708h.02v43.932c0 32.626-26.544 59.17-59.17 59.17s-59.17-26.542-59.17-59.169zm-29.506 226.351h-44.12v-11.495h44.12zm221.47 0h-44.11v-11.495h44.11zm0-26.495h-44.11v-7.189c0-4.142-3.357-7.5-7.5-7.5s-7.5 3.358-7.5 7.5v14.65c0 .013-.002.025-.002.039s.002.026.002.039v18.957h-147.36v-33.685c0-4.142-3.357-7.5-7.5-7.5s-7.5 3.358-7.5 7.5v7.189h-44.12v-40.17c7.853-2.225 13.63-9.442 13.63-17.999v-28.293c5.013-4.378 11.048-7.427 17.62-8.872l39.751-8.742c15.596 17.923 37.856 28.109 61.795 28.109 23.94 0 46.199-10.186 61.795-28.109l39.752 8.742c18.105 3.974 31.247 20.315 31.247 38.855zm-116.32-165.85c3.632-1.992 4.961-6.551 2.97-10.183-1.993-3.631-6.552-4.962-10.183-2.969-2.021 1.108-5.258 2.398-9.462 2.376-3.983-.042-7.124-1.315-9.058-2.375-3.632-1.992-8.191-.664-10.183 2.967s-.664 8.19 2.968 10.183c4.929 2.705 10.502 4.166 16.116 4.224.12.001.239.002.357.002 7.237 0 12.942-2.288 16.475-4.225z"/></g></svg>