<svg width="21" height="27" viewBox="0 0 21 27" fill="none" xmlns="http://www.w3.org/2000/svg">
<path d="M17.6666 5.0293H2.65611C1.735 5.0293 0.988281 5.85407 0.988281 6.87148V14.2402C0.988281 15.2576 1.735 16.0824 2.65611 16.0824H17.6666C18.5877 16.0824 19.3344 15.2576 19.3344 14.2402V6.87148C19.3344 5.85407 18.5877 5.0293 17.6666 5.0293Z" stroke-width="1.5" stroke-linecap="round" stroke-linejoin="round"/>
<path d="M17.6666 16.082H2.65611C1.735 16.082 0.988281 16.9068 0.988281 17.9242V21.6086C0.988281 22.626 1.735 23.4508 2.65611 23.4508H17.6666C18.5877 23.4508 19.3344 22.626 19.3344 21.6086V17.9242C19.3344 16.9068 18.5877 16.082 17.6666 16.082Z" stroke-width="1.5" stroke-linecap="round" stroke-linejoin="round"/>
<path d="M17.6666 5.0291H2.65611C2.21416 5.02773 1.79066 4.83321 1.47815 4.48802C1.16563 4.14284 0.989519 3.67507 0.988281 3.18691V3.18691C0.989519 2.69875 1.16563 2.23098 1.47815 1.8858C1.79066 1.54062 2.21416 1.34609 2.65611 1.34473H17.6666C18.1086 1.34609 18.5321 1.54062 18.8446 1.8858C19.1571 2.23098 19.3332 2.69875 19.3344 3.18691V3.18691C19.3332 3.67507 19.1571 4.14284 18.8446 4.48802C18.5321 4.83321 18.1086 5.02773 17.6666 5.0291V5.0291Z" stroke-width="1.5" stroke-linecap="round" stroke-linejoin="round"/>
<path d="M4.32401 23.4512V24.7177C4.32401 24.8704 4.26909 25.0168 4.17135 25.1247C4.07361 25.2327 3.94104 25.2934 3.80281 25.2934H2.34346C2.20523 25.2934 2.07266 25.2327 1.97492 25.1247C1.87718 25.0168 1.82227 24.8704 1.82227 24.7177V23.4512H4.32401Z" stroke-width="1.5" stroke-linecap="round" stroke-linejoin="round"/>
<path d="M18.4998 23.4512V24.7177C18.4998 24.8704 18.4449 25.0168 18.3471 25.1247C18.2494 25.2327 18.1168 25.2934 17.9786 25.2934H16.5192C16.381 25.2934 16.2484 25.2327 16.1507 25.1247C16.053 25.0168 15.998 24.8704 15.998 24.7177V23.4512H18.4998Z" stroke-width="1.5" stroke-linecap="round" stroke-linejoin="round"/>
<path d="M15.998 20.6879C16.4585 20.6879 16.8319 20.2755 16.8319 19.7668C16.8319 19.2581 16.4585 18.8457 15.998 18.8457C15.5374 18.8457 15.1641 19.2581 15.1641 19.7668C15.1641 20.2755 15.5374 20.6879 15.998 20.6879Z" stroke-width="1.5" stroke-linejoin="round"/>
<path d="M4.32318 20.6879C4.78374 20.6879 5.1571 20.2755 5.1571 19.7668C5.1571 19.2581 4.78374 18.8457 4.32318 18.8457C3.86262 18.8457 3.48926 19.2581 3.48926 19.7668C3.48926 20.2755 3.86262 20.6879 4.32318 20.6879Z" stroke-width="1.5" stroke-linejoin="round"/>
<path d="M10.1611 5.0293V16.0824" stroke-width="1.5" stroke-linecap="round" stroke-linejoin="round"/>
<path d="M0.988281 3.18652V19.7662" stroke-width="1.5" stroke-linecap="round" stroke-linejoin="round"/>
<path d="M19.334 3.18652V19.7662" stroke-width="1.5" stroke-linecap="round" stroke-linejoin="round"/>
</svg>
