<svg id="Capa_1" enable-background="new 0 0 510 510" height="512" viewBox="0 0 510 510" width="512" xmlns="http://www.w3.org/2000/svg"><g><path d="m342.804 165c0-49.626-40.374-90-90-90s-90 40.374-90 90 40.374 90 90 90 90-40.374 90-90zm-150 0c0-33.084 26.916-60 60-60s60 26.916 60 60-26.916 60-60 60-60-26.916-60-60z"/><path d="m469.426 284.172c-.23-4.621 2.129-8.902 6.158-11.175l24.589-13.868-14.738-26.131-24.588 13.868c-13.991 7.891-22.185 22.759-21.384 38.801.23 4.621-2.13 8.903-6.158 11.176l-33.308 20.361 15.652 25.592 32.648-19.969c13.836-7.926 21.924-22.709 21.129-38.655z"/><path d="m43.409 91.745c-1.749-4.283-.94-9.104 2.108-12.584 10.586-12.08 13.391-28.823 7.321-43.695l-10.669-26.135-27.775 11.338 10.67 26.135c1.748 4.283.94 9.106-2.108 12.585-10.522 12.007-13.358 28.618-7.432 43.421l13.201 35.921 28.158-10.348-13.282-36.142z"/><path d="m12.803 195h30v30h-30z" transform="matrix(.707 -.707 .707 .707 -140.346 81.163)"/><path d="m68.41 310.607h30v30h-30z" transform="matrix(.707 -.707 .707 .707 -205.808 154.348)"/><path d="m328.783 365.44c4.922-6.544 9.93-13.334 14.948-20.312 54.128-75.266 81.572-133.346 81.572-172.627 0-95.117-77.383-172.5-172.5-172.5s-172.5 77.383-172.5 172.5c0 39.281 27.444 97.361 81.572 172.627 5.014 6.972 10.017 13.757 14.934 20.295-36.238 5.416-66.726 14.635-87.51 26.629-26.03 15.036-31.495 31.655-31.495 42.948 0 16.271 10.926 39.308 62.978 56.657 35.486 11.829 82.372 18.343 132.022 18.343s96.536-6.514 132.021-18.343c52.053-17.35 62.979-40.387 62.979-56.657 0-38.283-57.515-60.306-119.021-69.56zm-218.479-192.94c0-78.575 63.925-142.5 142.5-142.5s142.5 63.925 142.5 142.5c0 61.405-94.291 183.703-142.5 239.753-48.209-56.05-142.5-178.348-142.5-239.753zm265.035 290.697c-67.179 22.391-177.699 22.456-245.07 0-33.59-11.196-42.465-23.34-42.465-28.197 0-3.597 4.335-9.943 16.498-16.968 20.326-11.731 54.193-20.766 93.771-25.112 27.076 34.098 44.223 52.809 54.73 64.539 8.976-10.02 26.918-29.515 54.724-64.531 32.414 3.564 61.263 10.308 81.886 19.208 19.612 8.465 28.391 17.583 28.391 22.864 0 4.857-8.875 17.001-42.465 28.197z"/><path d="m432.803 30h30v30h-30z" transform="matrix(.707 -.707 .707 .707 99.332 329.817)"/><path d="m467.197 349.394h30v30h-30z" transform="matrix(.707 -.707 .707 .707 -116.435 447.679)"/></g></svg>