<svg width="21" height="23" viewBox="0 0 21 23" fill="none" xmlns="http://www.w3.org/2000/svg">
<path d="M20.4748 20.2718L16.6943 16.1084C17.9141 14.3921 18.5759 12.2726 18.5734 10.0906C18.5734 8.14743 18.0517 6.24787 17.0743 4.63215C16.0969 3.01644 14.7077 1.75714 13.0823 1.01351C11.457 0.269882 9.66845 0.0753142 7.94297 0.454414C6.21748 0.833514 4.63253 1.76925 3.38852 3.14331C2.14452 4.51736 1.29734 6.26801 0.954124 8.17387C0.610904 10.0797 0.787057 12.0552 1.46031 13.8505C2.13356 15.6458 3.27367 17.1802 4.73646 18.2598C6.19925 19.3394 7.91903 19.9156 9.67832 19.9156C11.6538 19.9183 13.5727 19.1873 15.1266 17.8401L18.8959 22.0157C18.9992 22.1308 19.1222 22.2222 19.2577 22.2846C19.3932 22.3469 19.5385 22.379 19.6853 22.379C19.8321 22.379 19.9774 22.3469 20.1129 22.2846C20.2484 22.2222 20.3714 22.1308 20.4748 22.0157C20.579 21.9016 20.6617 21.7657 20.7181 21.6161C20.7746 21.4664 20.8036 21.3059 20.8036 21.1438C20.8036 20.9816 20.7746 20.8211 20.7181 20.6714C20.6617 20.5218 20.579 20.386 20.4748 20.2718ZM3.00698 10.0906C3.00698 8.63323 3.39825 7.20856 4.13131 5.99677C4.86436 4.78499 5.90628 3.84052 7.12531 3.28279C8.34433 2.72507 9.68572 2.57914 10.9798 2.86347C12.2739 3.14779 13.4627 3.8496 14.3957 4.88014C15.3287 5.91068 15.964 7.22366 16.2215 8.65306C16.4789 10.0825 16.3468 11.5641 15.8418 12.9105C15.3369 14.257 14.4818 15.4078 13.3847 16.2175C12.2876 17.0272 10.9978 17.4594 9.67832 17.4594C7.90897 17.4594 6.21209 16.683 4.96097 15.3011C3.70986 13.9192 3.00698 12.0449 3.00698 10.0906Z" fill="black"/>
</svg>
