<svg xmlns="http://www.w3.org/2000/svg" xmlns:xlink="http://www.w3.org/1999/xlink" aria-hidden="true" focusable="false" width="1em" height="1em" style="-ms-transform: rotate(360deg); -webkit-transform: rotate(360deg); transform: rotate(360deg);" preserveAspectRatio="xMidYMid meet" viewBox="0 0 36 36"><path class="clr-i-solid clr-i-solid-path-1" d="M34 16.78a2.22 2.22 0 0 0-1.29-4l-9-.34a.23.23 0 0 1-.2-.15l-3.11-8.4a2.22 2.22 0 0 0-4.17 0l-3.1 8.43a.23.23 0 0 1-.2.15l-9 .34a2.22 2.22 0 0 0-1.29 4l7.06 5.55a.23.23 0 0 1 .08.24l-2.43 8.61a2.22 2.22 0 0 0 3.38 2.45l7.46-5a.22.22 0 0 1 .25 0l7.46 5a2.2 2.2 0 0 0 2.55 0a2.2 2.2 0 0 0 .83-2.4l-2.45-8.64a.22.22 0 0 1 .08-.24z" fill="#626262"/></svg>
