<svg width="24" height="24" viewBox="0 0 24 24" xmlns="http://www.w3.org/2000/svg">
<path d="M22 10V6C22 5.46957 21.7893 4.96086 21.4142 4.58579C21.0391 4.21071 20.5304 4 20 4H4C3.46957 4 2.96086 4.21071 2.58579 4.58579C2.21071 4.96086 2 5.46957 2 6V10C2.53043 10 3.03914 10.2107 3.41421 10.5858C3.78929 10.9609 4 11.4696 4 12C4 12.5304 3.78929 13.0391 3.41421 13.4142C3.03914 13.7893 2.53043 14 2 14V18C2 19.1 2.9 20 4 20H20C21.1 20 22 19.1 22 18V14C20.9 14 20 13.1 20 12C20 10.9 20.9 10 22 10ZM20 8.54C18.81 9.23 18 10.53 18 12C18 13.47 18.81 14.77 20 15.46V18H4V15.46C5.19 14.77 6 13.47 6 12C6 10.5 5.2 9.23 4 8.54V6H20V8.54ZM11 15H13V17H11V15ZM11 11H13V13H11V11ZM11 7H13V9H11V7Z" />
</svg>
