<svg width="14" height="14" viewBox="0 0 14 14" fill="none" xmlns="http://www.w3.org/2000/svg">
<path d="M6.02643 8.68703L4.60643 7.26703L3.89976 7.9737L6.01976 10.0937L10.0198 6.0937L9.31309 5.38703L6.02643 8.68703ZM10.5578 0.207031L13.6291 2.77036L12.7758 3.7937L9.70243 1.2317L10.5578 0.207031ZM3.44176 0.207031L4.29643 1.23103L1.22443 3.7937L0.371094 2.7697L3.44176 0.207031ZM6.99976 1.66703C5.40837 1.66712 3.8822 2.29938 2.75698 3.42472C1.63176 4.55007 0.999672 6.07631 0.999761 7.6677C0.999849 9.25909 1.63211 10.7853 2.75745 11.9105C3.8828 13.0357 5.40904 13.6678 7.00043 13.6677C7.7884 13.6677 8.56865 13.5124 9.29663 13.2108C10.0246 12.9092 10.6861 12.4672 11.2432 11.91C11.8004 11.3528 12.2423 10.6913 12.5438 9.96329C12.8453 9.23527 13.0005 8.45501 13.0004 7.66703C13.0004 6.87906 12.8451 6.09881 12.5436 5.37083C12.242 4.64285 11.7999 3.9814 11.2427 3.42425C10.6855 2.8671 10.024 2.42516 9.29601 2.12365C8.568 1.82215 7.78774 1.66699 6.99976 1.66703ZM6.99976 12.3337C4.42643 12.3337 2.33309 10.2404 2.33309 7.66703C2.33309 5.0937 4.42643 3.00036 6.99976 3.00036C9.57309 3.00036 11.6664 5.0937 11.6664 7.66703C11.6664 10.2404 9.57309 12.3337 6.99976 12.3337Z" fill="black"/>
</svg>
