<svg width="21" height="30" viewBox="0 0 21 30" fill="none" xmlns="http://www.w3.org/2000/svg">
<path d="M21 30H18.9V17.4419H21V30ZM4.942 17.4419H2.8L0 30H2.142L4.942 17.4419ZM13.3 5.5814C14.84 5.5814 16.1 4.32558 16.1 2.7907C16.1 1.25581 14.84 0 13.3 0C11.76 0 10.5 1.25581 10.5 2.7907C10.5 4.32558 11.76 5.5814 13.3 5.5814ZM8.12 10.3256L4.2 30H7.14L9.66 18.8372L12.6 21.6279V30H15.4V19.5349L12.46 16.7442L13.3 12.5581C15.12 14.6512 17.92 16.0465 21 16.0465V13.2558C18.34 13.2558 16.1 11.8605 14.98 9.90698L13.58 7.67442C13.2019 7.07185 12.621 6.62304 11.9413 6.40829C11.2616 6.19354 10.5273 6.22688 9.87 6.50233L2.8 9.48837V16.0465H5.6V11.3023L8.12 10.3256Z" />
</svg>
