<svg id="Capa_1" enable-background="new 0 0 512 512" height="512" viewBox="0 0 512 512" width="512" xmlns="http://www.w3.org/2000/svg"><g id="XMLID_50_"><path id="XMLID_1066_" d="m48 106.083h416v52h-416z" fill="#e0ef9b"/><path id="XMLID_1063_" d="m401.835 10h-291.67l-26.138 96.083h343.946z" fill="#d5ea79"/><path id="XMLID_1061_" d="m110.163 502h291.674l26.139-343.913h-343.952z" fill="#d5ea79"/><path id="XMLID_1060_" d="m352.5 10h-193v24.771c0 12.852 10.419 23.271 23.271 23.271h146.458c12.852 0 23.271-10.419 23.271-23.271z" fill="#cbe558"/><path id="XMLID_1737_" d="m271.667 243.771 66.73 115.579c6.963 12.06-1.741 27.136-15.667 27.136h-133.46c-13.926 0-22.63-15.075-15.667-27.136l66.73-115.579c6.963-12.061 24.371-12.061 31.334 0z" fill="#e0ef9b"/><g id="XMLID_374_"><path id="XMLID_1615_" d="m464 96.083h-28.384l-24.132-88.708c-1.184-4.354-5.137-7.375-9.649-7.375h-291.67c-4.512 0-8.465 3.021-9.649 7.375l-24.132 88.708h-28.384c-5.522 0-10 4.477-10 10v52c0 5.523 4.478 10 10 10h26.755l25.437 334.674c.396 5.214 4.743 9.242 9.972 9.242h291.674c5.229 0 9.575-4.028 9.972-9.242l25.437-334.674h26.753c5.522 0 10-4.477 10-10v-52c0-5.522-4.478-10-10-10zm-121.5-76.083v14.771c0 7.317-5.953 13.271-13.271 13.271h-146.458c-7.317 0-13.271-5.953-13.271-13.271v-14.771zm-224.691 0h31.691v14.771c0 18.345 14.925 33.271 33.271 33.271h146.459c18.346 0 33.271-14.925 33.271-33.271v-14.771h31.691l20.697 76.083h-317.778zm336.191 128.083h-153c-5.522 0-10 4.477-10 10s4.478 10 10 10h116.187l-24.619 323.917h-273.136l-24.619-323.917h116.187c5.522 0 10-4.477 10-10s-4.478-10-10-10h-153v-32h396z"/><path id="XMLID_1677_" d="m256 224.726c-10.155 0-19.25 5.25-24.327 14.045l-24.506 42.446-20.544 5.504c-5.335 1.429-8.501 6.913-7.071 12.247 1.43 5.335 6.914 8.502 12.247 7.071l1.226-.329-28.082 48.639c-5.077 8.795-5.077 19.296 0 28.091 5.078 8.794 14.172 14.045 24.327 14.045h48.73l15.402 15.402c1.953 1.952 4.512 2.929 7.071 2.929s5.118-.977 7.071-2.929c3.905-3.905 3.905-10.237 0-14.143l-1.26-1.26h56.444c10.155 0 19.249-5.25 24.327-14.045 5.077-8.795 5.077-19.296 0-28.091l-24.243-41.991 5.597-20.887c1.43-5.334-1.736-10.818-7.071-12.248-5.332-1.431-10.817 1.737-12.247 7.071l-.42 1.569-28.344-49.094c-5.077-8.792-14.172-14.042-24.327-14.042zm73.736 147.714c-.702 1.216-2.791 4.045-7.007 4.045h-56.444l1.26-1.26c3.905-3.905 3.905-10.237 0-14.143-3.906-3.904-10.236-3.904-14.143 0l-15.402 15.403h-48.729c-4.216 0-6.305-2.829-7.007-4.045s-2.107-4.439 0-8.09l28.445-49.268.594 2.218c1.197 4.468 5.237 7.414 9.653 7.414.856 0 1.728-.111 2.594-.343 5.335-1.43 8.501-6.913 7.071-12.248l-5.771-21.535 24.143-41.817c2.108-3.651 5.603-4.045 7.007-4.045s4.898.394 7.007 4.045l28.456 49.287-1.874-.502c-5.337-1.429-10.817 1.737-12.247 7.071-1.43 5.335 1.736 10.818 7.071 12.248l21.191 5.678 24.132 41.798c2.108 3.649.702 6.873 0 8.089z"/><path id="XMLID_1679_" d="m256 168.09c2.63 0 5.21-1.07 7.069-2.93 1.86-1.86 2.931-4.44 2.931-7.07s-1.07-5.21-2.931-7.07c-1.859-1.86-4.439-2.93-7.069-2.93s-5.21 1.07-7.07 2.93-2.93 4.43-2.93 7.07c0 2.63 1.069 5.21 2.93 7.07 1.86 1.86 4.44 2.93 7.07 2.93z"/></g></g></svg>