<svg width="20" height="15" viewBox="0 0 20 15" fill="none" xmlns="http://www.w3.org/2000/svg">
<path d="M1.82716 3.14583C1.30946 2.18924 0.730864 1.57899 0.091358 1.3151L0 1.26562V0.523438H5.02469V1.26562C4.62881 1.29861 4.30144 1.41406 4.04259 1.61198C3.78374 1.8099 3.7 2.09028 3.79136 2.45312C4.2177 3.54167 4.83436 5.09201 5.64136 7.10417C6.44835 9.11632 7.03457 10.5842 7.4 11.5078L9.50123 7.20312C9.28807 6.74132 8.93786 5.89193 8.45062 4.65495C7.96337 3.41797 7.55226 2.45312 7.21728 1.76042C7.00412 1.43056 6.45597 1.24913 5.57284 1.21615V0.523438H10.2321L10.2778 1.21615C10.0951 1.24913 9.9428 1.28212 9.82099 1.3151C9.69918 1.34809 9.59259 1.42231 9.50123 1.53776C9.40988 1.65321 9.37942 1.7934 9.40988 1.95833L10.7346 5.125C11.5872 3.14583 12.0136 2.13976 12.0136 2.10677C12.1049 1.74392 12.0288 1.50477 11.7852 1.38932C11.5416 1.27387 11.2218 1.21615 10.8259 1.21615L10.7802 0.523438H14.9827V1.21615C14.2519 1.28212 13.7494 1.52951 13.4753 1.95833C13.049 2.61806 12.3486 4.08594 11.3741 6.36198C12.0745 8.11024 12.7292 9.67708 13.3383 11.0625L16.9012 2.15625C16.7185 1.72743 16.277 1.41406 15.5765 1.21615L15.5309 0.523438L19.5049 0.572917V1.26562C19.3222 1.29861 19.1547 1.34809 19.0025 1.41406C18.6675 1.57899 18.3934 1.85938 18.1802 2.25521L13.2926 14.4766H12.4704L10.0951 8.53906L7.26296 14.4766H6.44074C5.9535 13.388 5.22263 11.5573 4.24815 8.98438C3.27366 6.41146 2.46667 4.46528 1.82716 3.14583Z" fill="white"/>
</svg>
