<svg width="18" height="21" viewBox="0 0 18 21" fill="none" xmlns="http://www.w3.org/2000/svg">
<path d="M7.146 2.24799C7.29541 1.8787 7.5517 1.56244 7.88202 1.33976C8.21234 1.11707 8.60163 0.998108 9 0.998108C9.39837 0.998108 9.78766 1.11707 10.118 1.33976C10.4483 1.56244 10.7046 1.8787 10.854 2.24799C12.3328 2.65467 13.6371 3.53554 14.5668 4.75532C15.4964 5.9751 15.9999 7.46633 16 8.99998V13.697L17.832 16.445C17.9325 16.5956 17.9902 16.7706 17.999 16.9515C18.0078 17.1323 17.9673 17.3121 17.8819 17.4718C17.7965 17.6314 17.6693 17.7648 17.514 17.8579C17.3587 17.9509 17.181 18 17 18H12.465C12.3446 18.8331 11.9281 19.5949 11.2917 20.1459C10.6553 20.6969 9.84176 21.0002 9 21.0002C8.15824 21.0002 7.34466 20.6969 6.7083 20.1459C6.07193 19.5949 5.6554 18.8331 5.535 18H0.999997C0.818954 18 0.6413 17.9509 0.485988 17.8579C0.330676 17.7648 0.203533 17.6314 0.118123 17.4718C0.0327134 17.3121 -0.00775834 17.1323 0.00102526 16.9515C0.00980886 16.7706 0.0675184 16.5956 0.167997 16.445L2 13.697V8.99998C2 5.77598 4.18 3.05999 7.146 2.24799ZM7.586 18C7.68928 18.2926 7.88078 18.546 8.13412 18.7253C8.38746 18.9045 8.69016 19.0008 9.0005 19.0008C9.31084 19.0008 9.61353 18.9045 9.86687 18.7253C10.1202 18.546 10.3117 18.2926 10.415 18H7.585H7.586ZM9 3.99999C7.67391 3.99999 6.40215 4.52677 5.46446 5.46445C4.52678 6.40213 4 7.6739 4 8.99998V14C4.00004 14.1975 3.94158 14.3906 3.832 14.555L2.869 16H15.13L14.167 14.555C14.0578 14.3905 13.9997 14.1974 14 14V8.99998C14 7.6739 13.4732 6.40213 12.5355 5.46445C11.5978 4.52677 10.3261 3.99999 9 3.99999Z" fill="black"/>
</svg>
