<svg width="16" height="18" viewBox="0 0 16 18" fill="none" xmlns="http://www.w3.org/2000/svg">
<path d="M7.13244 11.1088L5.48892 9.33379L4.67102 10.2171L7.12472 12.8671L11.7544 7.86712L10.9365 6.98379L7.13244 11.1088ZM12.377 0.508789L15.9318 3.71296L14.9442 4.99212L11.3871 1.78962L12.377 0.508789ZM4.14093 0.508789L5.13012 1.78879L1.57457 4.99212L0.586914 3.71212L4.14093 0.508789ZM8.25898 2.33379C6.4171 2.3339 4.65069 3.12423 3.34836 4.5309C2.04602 5.93758 1.31444 7.84539 1.31454 9.83462C1.31464 11.8239 2.04642 13.7316 3.3489 15.1381C4.65138 16.5446 6.41787 17.3347 8.25975 17.3346C9.17176 17.3346 10.0748 17.1405 10.9174 16.7635C11.76 16.3865 12.5255 15.834 13.1704 15.1375C13.8152 14.441 14.3267 13.6141 14.6757 12.7041C15.0247 11.7941 15.2042 10.8188 15.2042 9.83379C15.2041 8.84882 15.0245 7.87351 14.6754 6.96354C14.3264 6.05356 13.8148 5.22676 13.1698 4.53032C12.5249 3.83388 11.7593 3.28145 10.9167 2.90456C10.0741 2.52768 9.17099 2.33373 8.25898 2.33379ZM8.25898 15.6671C5.28059 15.6671 2.85775 13.0505 2.85775 9.83379C2.85775 6.61712 5.28059 4.00046 8.25898 4.00046C11.2374 4.00046 13.6602 6.61712 13.6602 9.83379C13.6602 13.0505 11.2374 15.6671 8.25898 15.6671Z" fill="black"/>
</svg>
