<svg width="14" height="16" viewBox="0 0 14 16" fill="none" xmlns="http://www.w3.org/2000/svg">
<path d="M12.9 11.3C11.9 9.4 10.9 9.7 9.8 9.6C9.9 9.9 9.9 10.2 9.9 10.6C11.5 11 11.9 12.9 11.9 14V15H9.9V14H10.9C10.9 14 10.9 11.5 9.4 11.5C7.9 11.5 7.9 13.9 7.9 14H8.9V15H6.9V14C6.9 12.9 7.3 10.9 8.9 10.6C8.9 10 8.8 9.5 8.7 9.3C8.5 9.2 8.3 9 8.3 8.7C8.3 8.1 9.1 8.3 9.7 7.2C9.7 7.2 10.6 4.9 10.3 2.9H9.3C9.3 2.7 9.4 2.6 9.4 2.4C9.4 2.2 9.4 2.1 9.3 1.9H10.1C9.8 0.9 8.8 0 6.9 0C5 0 4 0.9 3.6 2H4.4C4.4 2.2 4.3 2.3 4.3 2.5C4.3 2.7 4.3 2.8 4.4 3H3.4C3.2 5 4 7.3 4 7.3C4.6 8.3 5.4 8.1 5.4 8.8C5.4 9.3 4.9 9.5 4.3 9.6C4.1 9.8 3.9 10.2 3.9 11V12.2C4.5 12.4 4.9 13 4.9 13.6C4.9 14.3 4.2 15 3.4 15C2.6 15 1.9 14.3 1.9 13.5C1.9 12.8 2.3 12.3 2.9 12.1V10.9C2.9 10.4 3 10 3.1 9.6C2.4 9.7 1.6 10 0.9 11.3C0.3 12.4 0 16 0 16H13.7C13.8 16 13.5 12.4 12.9 11.3ZM5.4 2.5C5.4 1.7 6.1 1 6.9 1C7.7 1 8.4 1.7 8.4 2.5C8.4 3.3 7.7 4 6.9 4C6.1 4 5.4 3.3 5.4 2.5Z" fill="black"/>
</svg>
