<svg width="13" height="19" viewBox="0 0 13 19" fill="none" xmlns="http://www.w3.org/2000/svg">
<path d="M12.7402 19H11.5365V11.0465H12.7402V19ZM3.53584 11.0465H2.30806L0.703125 19H1.9309L3.53584 11.0465ZM8.32658 3.53488C9.2093 3.53488 9.93152 2.73953 9.93152 1.76744C9.93152 0.795349 9.2093 0 8.32658 0C7.44387 0 6.72164 0.795349 6.72164 1.76744C6.72164 2.73953 7.44387 3.53488 8.32658 3.53488ZM5.35745 6.53953L3.11053 19H4.79572L6.24016 11.9302L7.92535 13.6977V19H9.53029V12.3721L7.8451 10.6047L8.32658 7.95349C9.36979 9.27907 10.9747 10.1628 12.7402 10.1628V8.39535C11.2155 8.39535 9.93152 7.51163 9.28955 6.27442L8.48708 4.86047C8.27036 4.47884 7.9374 4.19459 7.54778 4.05858C7.15816 3.92258 6.73731 3.94369 6.36053 4.11814L2.30806 6.0093V10.1628H3.913V7.15814L5.35745 6.53953Z" fill="black"/>
</svg>
