<svg width="10" height="14" viewBox="0 0 10 14" fill="none" xmlns="http://www.w3.org/2000/svg">
<path d="M2.18093 0.625548L2.89827 0.396214C3.5716 0.181548 4.2896 0.528881 4.57827 1.20755L5.15093 2.55955C5.40027 3.14821 5.26227 3.84088 4.80827 4.27155L3.5456 5.47021C3.62293 6.18755 3.86427 6.89355 4.26827 7.58821C4.65212 8.26036 5.16695 8.84863 5.78227 9.31821L7.29893 8.81155C7.87427 8.62022 8.50027 8.84088 8.85227 9.35888L9.67426 10.5655C10.0843 11.1682 10.0109 11.9989 9.50227 12.5095L8.95693 13.0569C8.41427 13.6015 7.63893 13.7995 6.92227 13.5755C5.2296 13.0475 3.6736 11.4802 2.2536 8.87355C0.831599 6.26288 0.329599 4.04688 0.748266 2.22821C0.924266 1.46288 1.46893 0.852881 2.18093 0.625548Z" fill="black"/>
</svg>
