<svg width="12" height="14" viewBox="0 0 12 14" fill="none" xmlns="http://www.w3.org/2000/svg">
<path d="M4.52 6.43967L3.57333 7.38634C3.02464 6.83776 2.61544 6.16565 2.38 5.42634L3.67333 5.09967C3.88667 5.69301 4.18667 6.09967 4.52 6.43967ZM5.33333 2.99967L2.66667 0.333008L0 2.99967H2.01333C2.02667 3.53967 2.06667 4.02634 2.14 4.44634L3.43333 4.11967C3.38667 3.79967 3.35333 3.41967 3.34667 2.99967H5.33333ZM12 2.99967L9.33333 0.333008L6.66667 2.99967H8.66C8.59333 5.45301 7.80667 6.16634 6.96667 6.91967C6.63333 7.21301 6.29333 7.53301 6 7.95301C5.77333 7.62634 5.51333 7.36634 5.24667 7.12634L4.30667 8.06634C4.92667 8.63301 5.33333 9.09301 5.33333 10.333V13.6663H6.66667V10.333C6.66667 8.98634 7.14 8.55967 7.86 7.91301C8.78 7.08634 9.91333 6.05967 9.99333 2.99967H12Z" fill="black"/>
</svg>
