<?xml version="1.0" encoding="iso-8859-1"?>
<!-- Generator: Adobe Illustrator 16.0.0, SVG Export Plug-In . SVG Version: 6.00 Build 0)  -->
<!DOCTYPE svg PUBLIC "-//W3C//DTD SVG 1.1//EN" "http://www.w3.org/Graphics/SVG/1.1/DTD/svg11.dtd">
<svg version="1.1" id="Capa_1" xmlns="http://www.w3.org/2000/svg" xmlns:xlink="http://www.w3.org/1999/xlink" x="0px" y="0px"
	 width="99.04px" height="99.04px" viewBox="0 0 99.04 99.04" style="enable-background:new 0 0 99.04 99.04;" xml:space="preserve"
	>
<g>
	<g>
		<path d="M17.293,52.706c-3.912,0-7.084,3.169-7.084,7.083c0,0.304,0.025,0.6,0.063,0.892c0.438,3.491,3.413,6.194,7.021,6.194
			c3.709,0,6.746-2.851,7.056-6.48c0.016-0.199,0.03-0.4,0.03-0.604C24.379,55.875,21.208,52.706,17.293,52.706z M13.744,57.119
			l1.446,1.445c-0.113,0.193-0.199,0.401-0.256,0.624h-2.037C13.002,58.415,13.298,57.714,13.744,57.119z M12.891,60.415h2.051
			c0.059,0.218,0.143,0.426,0.256,0.613l-1.448,1.449C13.303,61.887,12.997,61.183,12.891,60.415z M16.681,64.191
			c-0.767-0.106-1.466-0.407-2.056-0.854l1.44-1.44c0.189,0.11,0.397,0.19,0.615,0.248L16.681,64.191L16.681,64.191z M16.681,57.433
			c-0.224,0.058-0.433,0.146-0.627,0.261l-1.442-1.442c0.592-0.45,1.297-0.749,2.069-0.855V57.433z M17.905,55.395
			c0.774,0.106,1.479,0.405,2.071,0.855l-1.442,1.442c-0.195-0.114-0.404-0.203-0.629-0.262V55.395z M17.905,64.189v-2.044
			c0.22-0.058,0.427-0.14,0.616-0.249l1.441,1.441C19.374,63.782,18.674,64.083,17.905,64.189z M20.842,62.482l-1.453-1.454
			c0.112-0.19,0.206-0.395,0.264-0.613h2.035C21.58,61.183,21.291,61.893,20.842,62.482z M19.654,59.188
			c-0.057-0.223-0.143-0.431-0.256-0.624l1.445-1.445c0.447,0.595,0.743,1.296,0.848,2.069H19.654z"/>
		<path d="M78.497,52.255c-3.911,0-7.083,3.169-7.083,7.084c0,0.304,0.024,0.6,0.062,0.892c0.439,3.49,3.412,6.193,7.021,6.193
			c3.711,0,6.748-2.852,7.057-6.48c0.017-0.199,0.029-0.4,0.029-0.604C85.584,55.423,82.411,52.255,78.497,52.255z M74.948,56.669
			l1.446,1.444c-0.113,0.194-0.199,0.401-0.256,0.623h-2.037C74.206,57.964,74.502,57.262,74.948,56.669z M74.096,59.964h2.051
			c0.059,0.219,0.143,0.426,0.256,0.613l-1.447,1.449C74.508,61.437,74.201,60.731,74.096,59.964z M77.885,63.74
			c-0.767-0.106-1.465-0.407-2.056-0.854l1.44-1.44c0.189,0.112,0.396,0.19,0.615,0.248V63.74L77.885,63.74z M77.885,56.981
			c-0.224,0.058-0.433,0.146-0.627,0.261L75.816,55.8c0.592-0.449,1.297-0.749,2.068-0.855V56.981z M79.112,54.943
			c0.772,0.106,1.478,0.406,2.069,0.855l-1.442,1.442c-0.194-0.114-0.403-0.203-0.627-0.261V54.943z M79.112,63.738v-2.044
			c0.218-0.058,0.426-0.14,0.614-0.249l1.441,1.441C80.577,63.331,79.879,63.631,79.112,63.738z M82.047,62.031l-1.453-1.454
			c0.111-0.189,0.205-0.394,0.265-0.613h2.034C82.784,60.731,82.494,61.441,82.047,62.031z M80.859,58.736
			c-0.059-0.222-0.145-0.429-0.258-0.623l1.447-1.444c0.445,0.594,0.742,1.295,0.848,2.067H80.859z"/>
		<path d="M97.773,53.251l-0.477-0.211v-5.353c0-1.36-0.408-2.689-1.174-3.813l-4.134-6.08c-1.451-2.134-3.739-3.55-6.298-3.898
			c-8.477-1.155-28.367-3.271-41.549,0.068c-9.744,2.47-21.455,9.911-21.455,9.911s-15.031,2.447-18.352,4.26
			c-2.543,1.389-4.045,3.169-4.301,5.723c-0.121,1.225,0.099,2.846,0.361,4.202c0.306,1.578,1.542,2.812,3.121,3.116l5.532,1.063
			c-0.131-0.442-0.234-0.898-0.293-1.369c-0.05-0.386-0.074-0.74-0.074-1.081c0-4.748,3.861-8.61,8.609-8.61
			c4.749,0,8.612,3.862,8.612,8.61c0,0.244-0.016,0.486-0.034,0.726c-0.053,0.621-0.18,1.222-0.358,1.799H70.43
			c-0.223-0.604-0.387-1.233-0.469-1.895c-0.05-0.386-0.074-0.74-0.074-1.081c0-4.747,3.86-8.609,8.608-8.609
			c4.749,0,8.612,3.862,8.612,8.609c0,0.244-0.016,0.486-0.034,0.727c-0.065,0.785-0.246,1.538-0.51,2.249h0.058l10.422-3.193
			c0.941-0.287,1.631-1.098,1.764-2.073l0.213-1.557C99.149,54.548,98.641,53.636,97.773,53.251z M68.031,34.412v8.586
			l-12.418,0.621v-9.352c0.066-0.001,0.131-0.006,0.199-0.007C60.074,34.224,64.23,34.29,68.031,34.412z M33.083,41.295v-0.977
			c0,0,7.764-4.796,18.887-5.845l-1.084,9.383l-17.803,0.891c0,0,0.847-0.391,0.847-2.28C33.93,42.467,33.864,41.621,33.083,41.295z
			 M70.401,42.881v-4.484l2.319,4.368L70.401,42.881z M87.928,41.483c-0.723,0.377-1.522,0.598-2.336,0.639l-10.209,0.51
			l-4.303-8.105c7.874,0.333,13.711,0.889,14.863,1.218c1.822,0.521,3.475,3.011,3.41,4.249
			C89.321,40.602,88.625,41.117,87.928,41.483z"/>
	</g>
</g>
<g>
</g>
<g>
</g>
<g>
</g>
<g>
</g>
<g>
</g>
<g>
</g>
<g>
</g>
<g>
</g>
<g>
</g>
<g>
</g>
<g>
</g>
<g>
</g>
<g>
</g>
<g>
</g>
<g>
</g>
</svg>
