<?xml version="1.0" encoding="iso-8859-1"?>
<!-- Generator: Adobe Illustrator 18.1.1, SVG Export Plug-In . SVG Version: 6.00 Build 0)  -->
<svg version="1.1" id="Capa_1" xmlns="http://www.w3.org/2000/svg" xmlns:xlink="http://www.w3.org/1999/xlink" x="0px" y="0px"
	 viewBox="0 0 20.656 20.656" style="enable-background:new 0 0 20.656 20.656;" xml:space="preserve">
<g>
	<path style="fill:#030104;" d="M4.84,5.548c0-1.861,1.508-3.369,3.369-3.369c1.86,0,3.369,1.508,3.369,3.369
		s-1.509,3.369-3.369,3.369C6.348,8.917,4.84,7.409,4.84,5.548z M12.454,13.813l2.718-2.719c-0.688-0.59-1.77-1.059-3.484-1.092
		H11.42H9.13H9.063l-0.888,1.455l-0.887-1.455H7.22H4.929H4.664c-4.837,0.093-4.663,3.645-4.663,3.645v4.685h2.845v-4.064h0.893
		L3.73,18.332h3.355h2.183h1c-0.018-0.117-0.006-0.238,0.045-0.351l0.496-1.136c0.045-0.104,0.117-0.19,0.207-0.258l1.282-2.935
		L12.454,13.813z M15.001,16.17l0.298,0.297l4.173-4.173l-0.298-0.298L15.001,16.17z M18.791,11.615l-0.754-0.755l-4.176,4.171
		l0.754,0.754L18.791,11.615z M13.104,14.274l0.375,0.375l4.178-4.168l-0.375-0.375L13.104,14.274z M11.887,16.695l0.991,0.992
		l2.132-0.932l-2.191-2.191L11.887,16.695z M11.874,17.06c-0.038-0.038-0.093-0.055-0.146-0.045
		c-0.053,0.011-0.097,0.046-0.119,0.095l-0.496,1.139c-0.026,0.061-0.014,0.133,0.033,0.18c0.049,0.047,0.119,0.061,0.181,0.034
		l1.138-0.498c0.049-0.021,0.084-0.065,0.094-0.118c0.012-0.053-0.006-0.105-0.043-0.146L11.874,17.06z M20.609,10.926l-1.963-1.961
		c-0.062-0.063-0.166-0.063-0.229,0l-0.782,0.782c-0.063,0.062-0.063,0.166,0,0.23l1.962,1.96c0.063,0.063,0.166,0.063,0.229,0
		l0.78-0.781C20.673,11.092,20.673,10.988,20.609,10.926z"/>
</g>
<g>
</g>
<g>
</g>
<g>
</g>
<g>
</g>
<g>
</g>
<g>
</g>
<g>
</g>
<g>
</g>
<g>
</g>
<g>
</g>
<g>
</g>
<g>
</g>
<g>
</g>
<g>
</g>
<g>
</g>
</svg>
